<svg width="15" height="18" viewBox="0 0 15 18" fill="none" xmlns="http://www.w3.org/2000/svg">
<path d="M14.9975 17.4415L14.2945 5.02008C14.2787 4.74091 14.0477 4.52257 13.768 4.52257H12.3694V2.34388L12.142 2.00306L10.9633 0.234814C10.8654 0.0881582 10.7007 0 10.5245 0H4.89999C4.72367 0 4.55903 0.0881582 4.46126 0.234814L3.28939 1.99249L3.05512 2.34388V4.52257H1.65654C1.37682 4.52257 1.14585 4.74091 1.13006 5.02008L0.919961 8.73206H2.88279C3.17404 8.73206 3.41009 8.96825 3.41009 9.25936C3.41009 9.55061 3.17404 9.78666 2.88279 9.78666H0.860227L0.800494 10.8413H4.99199C5.28324 10.8413 5.51929 11.0773 5.51929 11.3686C5.51929 11.6598 5.28324 11.8959 4.99199 11.8959H0.740761L0.681165 12.9505H2.88279C3.17404 12.9505 3.41009 13.1865 3.41009 13.4778C3.41009 13.7689 3.17404 14.0051 2.88279 14.0051H0.621431L0.426851 17.4415C0.41875 17.5863 0.470519 17.728 0.570074 17.8335C0.669767 17.9388 0.808321 17.9986 0.953329 17.9986H14.4711C14.6161 17.9986 14.7546 17.9388 14.8543 17.8335C14.9539 17.728 15.0056 17.5862 14.9975 17.4415ZM5.77883 2.34402H9.6457V4.52257H5.77883V2.34402Z" fill="white"/>
</svg>
