<svg width="17" height="17" viewBox="0 0 17 17" fill="none" xmlns="http://www.w3.org/2000/svg">
<path fill-rule="evenodd" clip-rule="evenodd" d="M4.86439 6.3086C4.86439 3.65843 7.03135 1.5 9.71686 1.5C12.4024 1.5 14.5693 3.65843 14.5693 6.3086C14.5693 8.95877 12.4024 11.1172 9.71686 11.1172C7.03135 11.1172 4.86439 8.95877 4.86439 6.3086ZM9.71686 0C6.21406 0 3.36439 2.81891 3.36439 6.3086C3.36439 7.79576 3.88193 9.1611 4.74699 10.2384L0.220532 14.7294C-0.0735106 15.0211 -0.0735105 15.4941 0.220532 15.7859C0.514574 16.0776 0.991311 16.0776 1.28535 15.7859L5.81758 11.2891C6.89465 12.1217 8.24836 12.6172 9.71686 12.6172C13.2197 12.6172 16.0693 9.79829 16.0693 6.3086C16.0693 2.81891 13.2197 0 9.71686 0Z" fill="white"/>
</svg>
